<?xml version="1.0" encoding="UTF-8"?>
<svg id="Camada_2" data-name="Camada 2" xmlns="http://www.w3.org/2000/svg" viewBox="0 0 110.13 26.89">
  <defs>
    <style>
      .cls-1 {
        fill-rule: evenodd;
      }

      .cls-1, .cls-2 {
        fill: #ffc000;
      }
    </style>
  </defs>
  <g id="Camada_1-2" data-name="Camada 1">
    <g>
      <path class="cls-1" d="M6.71,12.1l3.08-3.08h0l.89-.89,3.98-3.98c-.86-.45-1.81-.68-2.75-.68-1.51,0-3.01.58-4.16,1.72h0s0,0,0,0c-1.14,1.15-1.72,2.65-1.72,4.16,0,.95.23,1.9.68,2.75ZM13.62,17.87l-4.88,4.88c.86.45,1.81.68,2.75.68,1.51,0,3.01-.57,4.16-1.72h0c1.15-1.15,1.72-2.66,1.72-4.16,0-.95-.23-1.89-.68-2.75l-3.08,3.08h0ZM10.27,16.32l5.38-5.38,1.23-1.22,4.08-4.08,2.45,2.45-4.19,4.2c1.08,1.58,1.62,3.43,1.62,5.27,0,2.39-.91,4.78-2.74,6.61h0c-1.82,1.82-4.21,2.74-6.6,2.74s-4.78-.91-6.6-2.74h0l-1.22-1.22,1.22-1.23,5.38-5.38ZM0,18.81l4.2-4.2c-1.09-1.58-1.63-3.43-1.63-5.27,0-2.39.91-4.77,2.74-6.6h0C7.13.91,9.53,0,11.92,0s4.77.91,6.6,2.73h0s1.23,1.23,1.23,1.23l-13.22,13.22h0l-4.08,4.08-2.45-2.45Z"/>
      <g>
        <path class="cls-2" d="M26.81,16.67h3.09c.03.16.05.32.09.47.2.83.75,1.33,1.53,1.6.89.3,1.8.32,2.7.02.62-.21,1.12-.57,1.31-1.24.19-.67-.04-1.26-.64-1.62-.64-.39-1.36-.56-2.07-.75-.92-.25-1.84-.48-2.74-.78-.46-.15-.89-.41-1.3-.68-1.3-.86-1.71-2.11-1.55-3.6.17-1.47.97-2.53,2.24-3.2,2.14-1.12,4.35-1.17,6.55-.2,1.53.68,2.41,1.9,2.58,3.6,0,.07.01.14.01.2,0,.03,0,.06,0,.11h-3.07c-.01-.07-.02-.15-.04-.22-.15-.71-.58-1.19-1.24-1.43-.87-.32-1.77-.33-2.64,0-.64.23-1.07.68-1.11,1.41-.04.59.21,1.03.72,1.33.7.41,1.47.59,2.25.77,1.1.25,2.2.51,3.19,1.08,1.03.6,1.81,1.41,2.06,2.61.46,2.22-.55,4.17-2.68,4.97-2.16.82-4.36.79-6.5-.11-1.58-.66-2.46-1.91-2.69-3.61,0-.05-.03-.1-.05-.16,0-.19,0-.37,0-.56Z"/>
        <path class="cls-2" d="M63.29,6.23h.24c1.93,0,3.86,0,5.78,0,.98,0,1.95.1,2.86.5,1.76.76,2.65,2.66,2.08,4.48-.37,1.18-1.27,1.79-2.4,2.14-.08.02-.14.07-.23.12.46.13.89.2,1.27.37,1.41.6,2.24,2.06,2.1,3.65-.17,1.97-1.4,3.33-3.43,3.75-.56.12-1.14.18-1.72.19-2.13.02-4.26,0-6.4,0-.05,0-.1,0-.17-.01V6.23ZM66.51,14.75v4.06c.63,0,1.23,0,1.84,0,.52,0,1.04,0,1.55-.06.81-.1,1.46-.44,1.71-1.29.35-1.23-.45-2.47-1.76-2.6-1.1-.11-2.21-.07-3.34-.1ZM66.5,12.58c.93,0,1.83.01,2.74,0,.25,0,.5-.09.73-.18.87-.35,1.26-1.03,1.17-1.97-.07-.74-.63-1.39-1.48-1.48-1.03-.11-2.08-.07-3.12-.09-.01,0-.03.02-.04.04v3.7Z"/>
        <path class="cls-2" d="M110.13,16.55h-7.78c-.14,1.18.58,2.29,1.67,2.62,1.32.4,2.49-.05,3.08-1.2.95.06,1.9.12,2.9.19-.02.09-.03.17-.05.25-.39,1.4-1.31,2.32-2.64,2.82-1.52.57-3.08.59-4.62.09-1.58-.52-2.63-1.62-3.14-3.19-.5-1.51-.51-3.04-.03-4.56.7-2.22,2.55-3.6,4.88-3.68,1.01-.03,1.98.11,2.89.56,1.6.8,2.42,2.16,2.68,3.87.11.72.1,1.45.15,2.22ZM107.1,14.57c0-1.38-1-2.36-2.37-2.33-1.32.03-2.44,1.11-2.38,2.33h4.75Z"/>
        <path class="cls-2" d="M50.35,16.55h-7.8c-.08,1.38.76,2.84,2.74,2.74.6-.03,1.16-.19,1.59-.64.12-.12.24-.27.31-.43.08-.21.2-.25.4-.23.83.06,1.66.11,2.49.17.04,0,.08.01.17.03-.09.28-.17.54-.28.8-.48,1.11-1.34,1.85-2.46,2.26-1.51.56-3.06.58-4.59.08-1.57-.52-2.62-1.61-3.14-3.16-.51-1.52-.52-3.07-.04-4.6.7-2.21,2.54-3.58,4.87-3.66.89-.03,1.76.07,2.59.42,1.68.71,2.63,2.02,2.95,3.77.14.79.15,1.61.21,2.47ZM42.54,14.57h4.75c.09-1.23-.88-2.25-2.19-2.32-1.37-.07-2.51.95-2.56,2.32Z"/>
        <path class="cls-2" d="M58.6,10.05h3.15v11.37h-3.03v-2.04s-.04-.02-.06-.03c-.04.06-.1.11-.12.17-1.12,2.6-5.02,2.7-6.48.55-.54-.8-.77-1.68-.77-2.62-.02-2.44,0-4.89,0-7.33,0-.02,0-.03.01-.07h3.15v.26c0,2.1,0,4.19,0,6.29,0,.29.03.6.1.88.29,1.15,1.48,1.73,2.64,1.29.93-.35,1.41-1.09,1.41-2.19,0-2.08,0-4.16,0-6.24,0-.09,0-.18,0-.3Z"/>
        <path class="cls-2" d="M90.89,21.43h-3.15v-11.37h2.99v1.96s.04.02.06.04c.05-.05.12-.09.14-.14,1.06-2.53,4.88-2.59,6.36-.74.6.75.91,1.6.93,2.53.03,2.05.02,4.09.02,6.14,0,.52,0,1.05,0,1.59h-3.16c0-.11,0-.2,0-.3,0-2.11,0-4.21,0-6.32,0-.38-.05-.77-.18-1.12-.25-.7-.8-1.08-1.54-1.15-1.51-.13-2.45.75-2.46,2.32,0,2.1,0,4.19,0,6.29,0,.09,0,.18,0,.28Z"/>
        <path class="cls-2" d="M86.77,15.79c-.05,1.19-.26,2.33-.89,3.36-.88,1.46-2.2,2.24-3.87,2.45-.89.11-1.78.07-2.65-.17-1.52-.43-2.65-1.35-3.26-2.8-.86-2.03-.85-4.08.17-6.04.83-1.61,2.25-2.44,4.03-2.65.94-.11,1.87-.06,2.77.23,2,.66,3.12,2.11,3.53,4.13.1.49.12.99.18,1.49ZM83.52,15.76c0-.97-.2-1.79-.59-2.44-.83-1.38-2.79-1.38-3.62,0-.3.5-.47,1.05-.53,1.63-.11,1.06-.06,2.1.44,3.07.4.78,1.04,1.19,1.92,1.18.88,0,1.49-.42,1.89-1.19.37-.71.48-1.48.49-2.26Z"/>
        <path class="cls-2" d="M108,5.21c-.1.16-.19.29-.28.42-.62.92-1.24,1.84-1.85,2.77-.08.13-.17.18-.33.18-.66,0-1.32,0-2.01,0,.03-.08.05-.14.07-.19.46-1,.93-1.99,1.39-2.99.06-.13.12-.2.28-.19.85.01,1.7,0,2.55,0,.05,0,.09,0,.17,0Z"/>
      </g>
    </g>
  </g>
</svg>